<?xml version="1.0" encoding="UTF-8"?>
<svg id="Layer_1" xmlns="http://www.w3.org/2000/svg" version="1.1" viewBox="0 0 158.3 50">
  <!-- Generator: Adobe Illustrator 29.1.0, SVG Export Plug-In . SVG Version: 2.1.0 Build 142)  -->
  <defs>
    <style>
      .st0 {
        fill: none;
      }

      .st1 {
        fill: #acdef9;
      }

      .st2 {
        stroke: #00365f;
        stroke-width: .5px;
      }

      .st2, .st3 {
        fill: #00365f;
      }

      .st4 {
        fill: #86bc25;
      }

      .st5 {
        fill: #008e3d;
      }

      .st6 {
        fill: #fff;
      }

      .st7 {
        fill: #e4a224;
      }

      .st8 {
        fill: #008a3b;
      }

      .st9 {
        fill: #e63320;
      }

      .st10 {
        fill: #ffd125;
      }

      .st11 {
        fill: #0098d6;
      }
    </style>
  </defs>
  <path class="st0" d="M1.4,26.6c0,7.7,9.5,16.2,15.2,16.5h0c5.7-.3,15.2-8.8,15.2-16.5,0-10.4,0-24.8,0-24.8H1.3v24.8h0Z"/>
  <path class="st6" d="M16.5,43.5h0c-5.7-.3-15.6-8.8-15.6-16.9V1.4h31.1v.4c0,.1,0,14.5,0,24.8,0,8.1-9.8,16.6-15.5,16.9h0ZM1.7,2.2v24.4c0,7.6,9.5,15.8,14.8,16.1,5.3-.3,14.8-8.5,14.8-16.1,0-9.4,0-22,0-24.4H1.7Z"/>
  <rect class="st1" x="16.3" y="12.2" width="1" height="26.7"/>
  <path class="st10" d="M22.7,21.5h4.8c1.4,0,1.5.2,1.6.5,0-.5-.4-2.9-.6-4.6,0-.5-.2-1.7-.8-2.4-.2-.2-.3-.4-.7-.5,0,0,.4-1.1.7-1.8.1-.4,0-.8-.3-1-.3-.2-.6-.2-.9-.2h-3.4c-.9,0-1.3.6-1,1.2.2.5.5,1.4.7,1.8-1.1.4-1.4,1.8-1.6,3.1-.3,2.1-.6,5-.6,5.2,0,.3,0,.5.4.5.9,0,1.8,0,3.5,0,.2,0,.4.1.6.1.3,0,.5,0,.6-.2.7,0,1.5,0,2.3,0-.8,0-1.5,0-2.2,0,.2-.3.2-.7.2-.8-.1,1.1-1.5,1-1.2-.2-.2,0-.6,0-.8.2,0,.2,0,.5.1.7-.9,0-1.7,0-2.3-.1-.3,0-.4-.2-.3-.4.6-.8.7-.9,1.1-.9M23.1,12.1h3.2c.3,0,.7,0,.5.5-.2.6-.6,1.3-.7,1.6-.5,0-2.4,0-2.4,0-.1-.4-.4-.9-.6-1.5-.2-.3-.2-.7.1-.7Z"/>
  <path class="st6" d="M16.5,38.9c0,.3-.2.6-.5.6s-.5-.3-.5-.6v-2.7c0-.3.2-.6.5-.6s.5.3.5.6v2.7"/>
  <path class="st7" d="M10,7.4c.1,0,.4,0,.6,0-.2-.2-.4-.2-.5-.3-.3-1.1-1.8-.8-2,.2,0,.3-1.3.5-2.6,2.3-.6.9-1.5,1.6-1.8,1.8-.3.2.4.1.7-.2.3.3.8-.6,1.7-.7.2,0,3-.5,2.3-2.1,1,1.3-.7,2.2-1.7,2.3,0,0,.6,0,.7.1.2,0,0,.2,0,.3.3.2.9.7.9.7,0,0,.3-.1.2-.3-.5-.3-.6-.4-.7-.6,0,0-.2-.3.2-.4.4,0,1.8-.6,1.6-2.4,0-.3.2-.6.5-.7"/>
  <path class="st3" d="M9.8,7.1c0,0,0,.2-.2.2s-.1,0-.1-.2,0-.2.1-.2.2,0,.2.2"/>
  <rect class="st6" x="17" y="35.5" width=".5" height="3.8"/>
  <path class="st10" d="M18,39.9c.1-.2.2-.4.2-.6,0-.5-.4-.9-.9-.9h-1.5c-.5,0-.9.4-.9.9s0,.4.2.6c-.2.2-.5.5-.6.6,1,.5,3,.4,4,0-.1,0-.5-.4-.6-.6"/>
  <path class="st1" d="M16.5,9.1s0,0,0,0c-.7-.6-2.8-.9-4.1-.5,0,.2.2.7.3.9,2-.7,3.9.3,3.9.3h0s0,0,0,0c0,0,1.9-1,3.9-.3,0-.2.2-.7.3-.9-1.4-.4-3.5-.1-4.2.5"/>
  <rect class="st6" x="17.1" y="12.2" width=".3" height="20.7"/>
  <rect class="st6" x="15.6" y="12.2" width="1" height="19.2"/>
  <path class="st3" d="M17.5,19.6c0-.2,0-.8,0-1-.5,0-1.1,0-1.6,0,.9.4,1.6,1,1.6,1"/>
  <path class="st3" d="M14.1,36.8c.5,0,3.4.2,3.4.2l.5,1.2s-2.5,0-3.9-1.4"/>
  <path class="st1" d="M25.9,28c-.9-.6-2-.1-3.2-1.1,0,3.1,2.2,3.7,1,4.5-1.1.7-2.2.9-3.4.8.1-.2.3-.4.4-.6-1.4-.2-2.6,0-3.1,0-1.7-.5-3.6-1.1-6-1.2.4.3.8.9.8,2-.4-1.4-1.8-2.1-2.5-2.4-.2,0-.4-.1-.6-.1-.1.1-.3.4-.7.5-.2-.1-.4,0-.4.2,0,0,0,0,0,.1-.2.2-.9.1-1.4,0-.6-.2-.6.2-.4.4.2.3.4.5.4.7.8,1.6,1.3,2.6,3.1,3.6,1.6,1.2,3.7,1.8,5.8,1.9.8.3,2.5.8,4.7.4-.4-.3-.9-.6-1-.8,2.8-.8,5.2-2.6,6.1-5.4,0,0,0,0,0,0,.2-.6-.4-1.4-1.2-.6.7-1.7,1.9-1,1.6,0,1-1.3,2.2-2.6,3.9-3.2-1.5-.7-3-.1-4,.4"/>
  <path class="st3" d="M17.5,25.3c0-.2,0-.8,0-1-.5,0-1.1,0-1.6,0,.9.3,1.6,1,1.6,1"/>
  <path class="st10" d="M18.2,23.5c0,.5-.4.9-.9.9h-1.5c-.5,0-.9-.4-.9-.9s.4-.9.9-.9h1.5c.5,0,.9.4.9.9"/>
  <path class="st7" d="M17.3,24.1c-.9,0-1.7,0-1.7,0,0,0,1.3,0,2.1-.9.2.1.2.9-.4.9"/>
  <path class="st3" d="M17.5,31c0-.2,0-.8,0-1-.5,0-1.1,0-1.6,0,.9.3,1.6,1,1.6,1"/>
  <path class="st10" d="M18.2,29.2c0,.5-.4.9-.9.9h-1.5c-.5,0-.9-.4-.9-.9s.4-.9.9-.9h1.5c.5,0,.9.4.9.9"/>
  <path class="st7" d="M17.3,29.8c-.9,0-1.7,0-1.7,0,0,0,1.3,0,2.1-.9.2.1.2.9-.4.9"/>
  <rect class="st10" x="15.2" y="13.7" width="2.7" height="2.7"/>
  <path class="st7" d="M17.9,16.4c-.5.1-.4.5-.5.6,0,0-1.1,0-1.8,0,0,0,0-.6-.4-.6,0,0,2.5,0,2.7,0Z"/>
  <rect class="st7" x="16.8" y="13.7" width=".7" height="2.7"/>
  <path class="st10" d="M8,28.5c-.3.1-.5.4-.7.7-.1.3-.1.7,0,1,0,.2.2.4.4.4.2,0,.4,0,.6,0,.3-.1.5-.4.7-.7.2-.6,0-1.2-.4-1.4-.2,0-.4,0-.7,0M7.9,30.3c-.1,0-.2-.2-.2-.2,0-.2,0-.5,0-.7,0-.2.3-.4.5-.5,0,0,.2,0,.4,0,.2,0,.3.3.3.6s0,.3,0,.4c0,.2-.3.4-.5.5,0,0-.2,0-.4,0Z"/>
  <path class="st1" d="M8.4,30.2c-.1,0-.5-.2-1-.2-.3,0-.6-.2-.6-.3,0,0,0-.1.2-.1.3,0,1,0,1.7.1,0,.2-.2.3-.4.5"/>
  <path class="st9" d="M9.5,8.5c0,1.4-1.1,1.8-1.4,1.9,0-.3.5-1.7,1.4-1.9"/>
  <path class="st10" d="M18.2,17.8c0,.5-.4.9-.9.9h-1.5c-.5,0-.9-.4-.9-.9s.4-.9.9-.9h1.5c.5,0,.9.4.9.9"/>
  <path class="st7" d="M17.3,18.4c-.9,0-1.7,0-1.7,0,0,0,1.3,0,2.1-.9.2.2.3.9-.4.9"/>
  <path class="st6" d="M11.2,30.8c1,.7,1.3,1.6,1.3,1.6,0,0,.3-.8-.1-1.4.9-.3,2.4.1,3.8.7,2,.8,3.6,1.1,5.2.8,1.6-.3,2.4-.6,2.9-1.4.3-.4,1.1-.3.8.3s-1.2,2.4-3,2.9c-1.8.5-4.9,1.3-9.3.2-1.2-.3-4-1-5.2-2.5-.2-.3-.3-.9-.3-.9,0-.1,0-.2.3-.1.8.1.9-.2,1.2-.5.3,0,1.4-.2,2.3.4"/>
  <path class="st11" d="M24.8,31.2c-1.4,2.6-4,3-6.8,3.1-1.1,0-2.2-.1-3.2-.3.8,0,1.7,0,2.2-.2-.2-1-2-1.8-3.2-1.9-.2-.3-.3-.6-.9-.8.4.4.4.9.6,1.1,1,.2,2.2.5,2.9,1.3-.2.3-2.1.1-3.1-.1-.4-.2-.9-.4-1.1-.9-.5.5-1.2.3-2,0,0-.3-.2-.6-.6-.6,0,.1.1.3.1.4-.9-.5-1.7-1.1-2.1-1.1-.6,0,1.3,3.4,2.9,3.8,4.8,2.8,12.8,1.5,14.7-3.1.3-.7,0-1.1-.3-.5Z"/>
  <path class="st6" d="M9.7,32.2c0,.3-.2.5-.5.6-.3,0-.6-.2-.6-.5s.2-.6.5-.6c.3,0,.6.2.6.5"/>
  <path class="st3" d="M9.5,32.2c0,.1-.1.3-.3.3s-.3-.1-.3-.3.1-.3.3-.3.3.1.3.3"/>
  <path class="st6" d="M23.2,27.5c-.3,1.1,1.1,2.7,1.1,2.7,0,0-.6-2-1.1-2.7"/>
  <path class="st6" d="M24.1,27.7c-.5.7.4,2.2.4,2.2,0,0,0-1.2-.4-2.2"/>
  <path class="st6" d="M25.7,29.5c.4-.8,1.1-1.6,2-2-1.7.2-2.1,1.3-2,2"/>
  <path class="st6" d="M16.5,4.4c-.7-1.4-1.7-.3-3.5-.9-.3,1.5-.6,4-.7,4.5,1.2.4,2.3-.8,3.7.2-.1-1.9.5-3.4.5-3.4,0,0,0-.2,0-.4"/>
  <path class="st1" d="M16.5,4.4c-.1-.2-.3-.5-.5-.6-.2,2.2-.3,2.7-1,4,.4,0,.8.2,1,.4-.2-1.9.5-3.3.5-3.3v-.5Z"/>
  <path class="st6" d="M20,3.5c-1.8.6-2.8-.5-3.5.9v4.2c1.7-1.6,2.9-.1,4.2-.6,0-.4-.4-3-.7-4.5"/>
  <rect class="st10" x="16" y="11.1" width="1" height="1.1"/>
  <polygon class="st10" points="16.5 10 17 10.9 16 10.9 16.5 10"/>
  <path class="st8" d="M8.2,13.4h0s0,0,0,0"/>
  <path class="st4" d="M12.2,19s1.4-.7,1.5-1.4c-.4-.4-1.5-.5-1.5-.5,0,0,1.2-.9,1.2-1.6-.6-.3-1.7-.1-1.7-.1.5-.7.6-1.2.6-1.7-.6-.1-1.6.3-1.6.3,0,0,.3-1.2,0-1.8-.6-.2-1.4.9-1.4.9,0,0-.3-1.3-1-1.9-.7.7-1,1.9-1,1.9,0,0-.8-1-1.4-.9-.3.6,0,1.8,0,1.8,0,0-1-.4-1.6-.3,0,.5.1,1,.6,1.7,0,0-1.1-.2-1.7.1,0,.7,1.2,1.6,1.2,1.6,0,0-1.1,0-1.5.5.2.7,1.5,1.4,1.5,1.4,0,0-.8.2-1.3.7.3.4,1,.8,1.6.9-.5.4-.7.7-.9.9.8.6,2.4.7,4,.2,0,.3,0,2.8-.4,4h1.6c-.4-1.1-.4-3.6-.4-4,1.6.5,3.2.4,4-.2-.1-.2-.4-.5-.9-.9.6,0,1.2-.5,1.6-.9-.5-.6-1.3-.7-1.3-.7"/>
  <path class="st5" d="M10.7,19c.1,0,.9-.3,1.3-1-.4-.4-1.3-.4-1.3-.4,0,0,.8-.5,1.1-1.4-.7-.2-1.5,0-1.5,0,0,0,.6-.9.7-1.6-.7,0-1.4.4-1.4.4.2-.4.3-1.1.2-1.6-.3,0-.6.5-.8.7-.2-.6-.5-.7-.7-.8-.3.5-.4.8-.4,1.5.1-.1.3-.3.6-.5.2,1-.2,1.7-.2,1.7,0,0,.4-.3,1-.3,0,.5-.2,1.1-.7,1.7,0,0,.5-.3,1.1-.3,0,.8-.6,1.2-1,1.7.3-.1.9-.1,1.2,0-.2.6-.6.9-1.3,1.2.4,0,.8,0,1,.2-.3.5-.9.7-1.3.8,1,.4,2,.5,3,.3,0-.3-.4-.6-.9-.9.4,0,1-.2,1.5-.6-.3-.3-.7-.6-1.2-.7"/>
  <path class="st7" d="M17.6,38.8c.1.2.2.9-.4,1-1.1,0-1.7,0-1.7,0,0,0,1.5-.2,2.1-.9"/>
  <path class="st7" d="M22.7,15.8c0-.9.5-1.1,1.1-1.1.3,0,.8,0,2.1,0-.7,0-1.5.4-1.7,1.3-.1.8-.1,3.7-.1,4.9-.6,0-1.4,0-1.6,0,0-1.3.1-4.3.2-5.2"/>
  <rect class="st7" x="16.5" y="11.1" width=".3" height="1.1"/>
  <polygon class="st7" points="16.8 10.9 16.5 10 16.5 10.9 16.8 10.9"/>
  <path class="st2" d="M29.7,44.4c.6,0,1.1-.1,1.5-.3h.2c0,0,0,.5,0,.5v3.1c0,0,0,.2-.1.3-.2.2-.6.3-1,.3H2.9c-.5,0-.9,0-1-.3,0,0-.1-.2-.1-.3v-3.1s0-.3,0-.3v-.2s.1,0,.1,0c.4.2.9.3,1.5.3h26.4Z"/>
  <path class="st1" d="M27.9,41.2c.3,2.5,0,2.1,0,2.8.2,0,2.1.4,2.8,0,.7-.4,1-.5.7-.9s-1.8-1.3-2.5-1.4c-.6-.1-.9-.3-1-.5"/>
  <path class="st1" d="M5.3,41.3c.2.8-.4,2,0,2.8-.4,0-2.5,0-3,0-.4-.2-1.4-.5-.4-1,.9-.5,3.3-1.4,3.4-1.8"/>
  <g>
    <path class="st6" d="M5.6,40.3c-.6.8-1.6,1.2-2.4,1.6l-.4.2s-.4.2-.4.2c0,0-.1,0-.1,0h-.2c-.6.5-1,.9-1,2v.3s0,.5,0,.5v2.5c0,.3.1.6.4.8.4.3.9.5,1.6.5h27.3c.6,0,1.2-.2,1.6-.5.2-.2.4-.5.4-.8v-3.5c0-.9-.3-1.3-.8-1.6,0,0-.5-.3-.5-.3l-.6-.2s0,0,0,0c0,0-.3-.1-.3-.1-.9-.4-1.8-.8-2.4-1.6,0,0,0,0,0,0,0,0,0,.1,0,.1,0,.2,0,.4,0,.6,0,.4,0,.7.2,1.1.1.4.2.9.3,1.6h0c0,.1-22.4.1-22.4.1h0c0-.8.2-1.3.3-1.7,0-.4.2-.7.2-1.1s0-.4,0-.6c0,0,0,0,0-.1,0,0,0,0,0,0ZM2.3,43.6h-.1s0-.1,0-.1c0-.2.3-.4.5-.6,0,0,.2,0,.2,0,0,0,.5-.2.5-.2.4-.1.8-.3,1.2-.7l.2-.2v.3c0,0,0,0,0,0,0,.2,0,.3,0,.5s0,.5.2.9h0c0,.1-1.7.1-1.7.1-.4,0-.7,0-1-.1ZM28,43.5c.1-.3.2-.6.2-.9s0-.4,0-.5c0,0,0-.1,0-.1v-.3s.2.2.2.2c.4.3.8.5,1.2.7l.4.2s.4.2.4.2c.2.1.4.3.4.5h0c0,0-.1.1-.1.1-.2,0-.5.2-1,.2h-1.8,0ZM29.7,44.4c.6,0,1.1-.1,1.5-.3h.2c0,0,0,.5,0,.5v3.1c0,0,0,.2-.1.3-.2.2-.6.3-1,.3H2.9c-.5,0-.9,0-1-.3,0,0-.1-.2-.1-.3v-3.1s0-.3,0-.3v-.2s.1,0,.1,0c.4.2.9.3,1.5.3h26.4Z"/>
    <path class="st6" d="M2.9,45.3h.6l.4,1.1s0,.1,0,.3c0-.2,0-.2,0-.3l.4-1.1h.6l-.8,2h-.4l-.8-2"/>
    <rect class="st6" x="5.3" y="45.3" width=".6" height="2"/>
    <path class="st6" d="M6.9,45.3h.7l.7,2h-.6v-.4h-.9v.4h-.7l.7-2M7.5,46.6l-.2-.7s0-.1,0-.3c0,.2,0,.2,0,.3l-.2.7h.6Z"/>
    <path class="st6" d="M9.4,45.3h.6l.4,1.1s0,.1,0,.3c0-.2,0-.2,0-.3l.4-1.1h.6l-.9,2h-.4l-.8-2"/>
    <polyline class="st6" points="11.8 45.3 13 45.3 13 45.8 12.3 45.8 12.3 46.1 13 46.1 13 46.5 12.3 46.5 12.3 46.9 13 46.9 13 47.3 11.8 47.3 11.8 45.3"/>
    <path class="st6" d="M13.6,45.3h.6c.3,0,.5,0,.7.1.1.1.2.3.2.5,0,.3-.2.5-.4.6l.6.8h-.6l-.5-.8v.8h-.5v-2M14.2,46.3c.2,0,.3,0,.3-.2s-.1-.3-.3-.3h-.1v.5h0Z"/>
    <rect class="st6" x="15.5" y="45.3" width=".6" height="2"/>
    <polyline class="st6" points="17 45.8 16.5 45.8 16.5 45.3 18 45.3 18 45.8 17.5 45.8 17.5 47.3 17 47.3 17 45.8"/>
    <path class="st6" d="M18.8,45.3h.7l.7,2h-.5v-.4h-.9v.4h-.6l.7-2M19.4,46.6l-.2-.7s0-.1,0-.3c0,.2,0,.2,0,.3l-.2.7h.5Z"/>
    <path class="st6" d="M21.1,47c.1,0,.2,0,.2-.2s-.1-.2-.3-.3c-.4,0-.5-.2-.5-.6s.3-.7.7-.7.4,0,.6.2l-.2.4c-.1-.1-.3-.2-.4-.2s-.2,0-.2.2c0,.2.1.2.3.2.4,0,.6.2.6.6s-.3.7-.8.7-.5,0-.7-.3l.2-.4c.2.2.3.3.5.3"/>
    <path class="st6" d="M23.1,45.3h.6l.4,1.1s0,.1,0,.3c0-.2,0-.2,0-.3l.4-1.1h.6l-.9,2h-.4l-.8-2"/>
    <rect class="st6" x="25.5" y="45.3" width=".6" height="2"/>
    <polyline class="st6" points="26.9 45.8 26.5 45.8 26.5 45.3 27.9 45.3 27.9 45.8 27.5 45.8 27.5 47.3 26.9 47.3 26.9 45.8"/>
    <path class="st6" d="M28.8,45.3h.7l.7,2h-.5v-.4h-.9v.4h-.7l.7-2M29.4,46.6l-.2-.7s0-.1,0-.3c0,.2,0,.2,0,.3l-.2.7h.5Z"/>
  </g>
  <path class="st6" d="M61.8,1.4v.6c-2,0-2.7.8-2.7,2.7v8c0,3.7-2.3,7.6-8.8,7.6s-8.6-3.2-8.6-7.5V4.2c0-1.9-.5-2.2-2.6-2.2v-.6h7.6v.6h-.3c-1.6,0-2.3.5-2.3,2.2v8.3c0,4,2.3,6.4,6.8,6.4s6.8-1.4,6.8-6.4v-6.9c0-2.8-.5-3.4-2.9-3.5v-.6h7Z"/>
  <path class="st6" d="M65.2,17.3c0,1.6.4,2,2,2v.6h-6v-.6c1.3,0,2-.7,2-1.9v-6.2c0-1.1-.1-1.3-.9-1.5l-1-.2v-.5l3.4-1.2h.5v2.3c2-1.2,3.7-2.3,5.1-2.3s3.2,1.5,3.2,4.4-.2,4.7-.2,5.9c0,.8.4,1.2,1.7,1.2h.7v.6h-6.4v-.6c.9,0,1.4-.2,1.7-.6.6-.6.6-2.7.6-6.7s-1.2-3.1-2.3-3.1-2.4.8-3.9,1.9v6.5h0Z"/>
  <path class="st6" d="M80.8,17.6c0,1,.6,1.7,2.1,1.7v.6h-6.6v-.6c1.8,0,2.5-.6,2.5-2.2v-6c0-1.2-.2-1.3-.9-1.5l-1.4-.3v-.5l3.9-1.3h.4v10ZM79.6.9c.7,0,1.3.5,1.3,1.1s-.6,1.1-1.3,1.1-1.3-.5-1.3-1.1.6-1.1,1.3-1.1Z"/>
  <path class="st6" d="M89,20.1l-4.3-9.9c-.4-1-.8-1.4-1.3-1.5h-.9v-.7h6.1v.5c-1.8,0-2.4.3-1.7,1.7l3.2,7.4,3-6.9c.5-1.2.3-2.1-1.9-2.2v-.5h5.2v.5c-1.1.2-1.8.9-2.3,2.2l-4.1,9.3h-.9Z"/>
  <path class="st6" d="M98.1,12.3c0,.4-.1.9-.1,1.2,0,3.1,2.2,5.2,4.5,5.2s2.7-.6,3.8-1.9l.3.4c-1.2,1.6-3.1,3.1-5.3,3.1s-5.2-2.6-5.2-6.1,2.1-6.4,5.7-6.4,3.9,2.9,4.9,3.9v.7s-8.7,0-8.7,0ZM104.3,11.5c-.3-1.9-1.5-3.2-2.9-3.2s-2.5.4-3.2,3.2h6.1Z"/>
  <path class="st6" d="M112.2,17.7c0,1.2.4,1.6,1.9,1.6h1.1v.6h-7v-.6c1.5,0,2-.6,2-2.2v-6.9l-2-.7v-.5l3.4-1.2h.6v3.2h0c1.5-2.4,1.8-3,2.8-3s.4,0,1,.3c.3.1.8.2,1.5.4l-.7,1.8c-.4,0-1-.2-1.6-.5-.3-.1-.7-.3-1-.3-.5,0-.9.4-1.2.8-.4.5-.7,1-.9,1.5,0,0,0,5.8,0,5.8Z"/>
  <path class="st6" d="M119.3,16.9c.3,1.8,1.5,2.8,2.8,2.8s2.1-.9,2.1-2-.2-1-.9-1.8c-2.1-2.1-4.5-2.3-4.5-4.8s1.6-3.3,3.8-3.3,1.6.2,2.4.5v2.7c0,0-.5,0-.5,0-.2-1.5-1.2-2.5-2.4-2.5s-1.8.7-1.8,1.7c0,2.6,5.5,3.1,5.5,6.7s-1.6,3.4-3.7,3.4-1,0-1.3-.2c-.3,0-.6-.2-.8-.2s-.4.1-.5.4h-.4l-.3-3.3h.5Z"/>
  <path class="st6" d="M131.8,17.6c0,1,.6,1.7,2.1,1.7v.6h-6.6v-.6c1.8,0,2.5-.6,2.5-2.2v-6c0-1.2-.1-1.3-.9-1.5l-1.4-.3v-.5l3.9-1.3h.4v10h0ZM130.6.9c.7,0,1.3.5,1.3,1.1s-.6,1.1-1.3,1.1-1.3-.5-1.3-1.1.6-1.1,1.3-1.1Z"/>
  <path class="st6" d="M141.7,8.1l-.5,1.3h-3.2v6.9c0,1.9,1.3,2.5,2,2.5s1.2-.5,1.8-1.5l.5.5c-.7,1.5-1.9,2.4-3.2,2.4s-3-1.5-3-3.5v-7.4h-1.4v-.5c1.2-.6,2.2-1.9,2.9-3.8h.5v2.9h3.7Z"/>
  <path class="st6" d="M152.8,11.4c.9-2.3.3-2.7-1.4-2.8v-.5h4.9v.5c-1.2.1-1.9,1-2.5,2.4l-5.1,12.6c-.9,2.2-1.6,3.2-2.6,3.2s-1.2-.5-1.2-1c0-1.2,1.7-.9,2.5-1.7.3-.3.8-1.1,1-1.7l.9-2.2-4.6-9.8c-.6-1.2-1.1-1.7-2.4-1.8v-.6h6v.5c-1.8,0-2,.6-1.4,1.8l3.4,7.2,2.5-6.3Z"/>
  <path class="st6" d="M47.1,29.9c.9,0,2.7,1.2,2.7,4.4,0,5.6-5.6,8.1-7,8.1s-2.6-2.2-2.6-4.7c0-4.8,5.2-7.8,6.9-7.8ZM45.6,31c-1.9,0-3.5,3.6-3.5,6.6s1.1,3.7,2.1,3.7c2.4,0,3.8-3.9,3.8-6.6s-1-3.7-2.3-3.7Z"/>
  <path class="st6" d="M50.9,31.2v-.6c.8,0,1.5-.2,2.3-.4.5-2.4,1.3-5,3-6.6,1-1,2.3-1.6,3.5-1.6s2.1.6,2.1,1.4-.4.9-.8.9c-1,0-1.8-1.2-2.6-1.2s-2.1,1.3-2.5,3.3l-.8,3.9h2.5l-.3,1h-2.4l-1.5,8.7c-1.2,6.7-4.5,9-7.3,9s-2.3-.6-2.3-1.4.5-.9,1-.9c1.1,0,1.7,1.3,2.8,1.3s1.3-.3,1.8-.9c1.5-1.5,2-6.6,2.2-7.3l1.5-8.6h-2.1Z"/>
  <path class="st6" d="M79.2,40.6c-2.9,1.5-6.7,1.9-8,1.9-6.5,0-9.5-5-9.5-9.4s3.1-10,10.4-10,5.3,1,5.9,1,.5,0,.7-.2h.4v4.8h-.6c-.8-3.7-3.3-4.9-6.1-4.9-5.2,0-7.9,4.3-7.9,9.1s4.3,8.8,7.7,8.8,2.9-.3,4.6-1.1v-3.7c0-1.7-.6-2.3-2.4-2.3h-1.1v-.5h8v.5c-1.5,0-2.1.6-2.1,1.9v4.1h0Z"/>
  <path class="st6" d="M85.8,39.7c0,1.2.6,1.8,1.7,1.8h.5v.6h-6.7v-.6c1.9,0,2.5-.6,2.5-2v-14.3c0-.8,0-1.1-.9-1.2h-1.3v-.6l3.8-1.2h.4v17.6h0Z"/>
  <path class="st6" d="M89.5,33.8c0-.2,0-.3,0-.4,0-1,2.5-3.5,4.4-3.5s2.3.4,3.1,1.6c.4.6.4,1,.4,2.6v4c0,2.4,0,2.9.8,2.9s.7,0,1.4-.7l.2.5c-1.6,1.3-2.4,1.6-2.9,1.6-1.2,0-1.3-1.3-1.4-1.8-2.1,1.7-2.6,1.8-3.4,1.8-1.7,0-2.8-1-2.8-2.4s1.6-2.4,3.5-2.9c.6-.2,1.6-.5,2.6-1.1v-2.3c0-.8,0-1.3-.5-1.9-.4-.5-1-.9-1.7-.9-1,0-1.8.8-1.8,1.4s0,.3.2.6l-2,1ZM95.4,36.5c-.6.3-1,.5-1.8.8-1.8.7-2.5,1-2.5,2.3s.9,1.8,1.8,1.8.8-.2,2.5-1.3v-3.5Z"/>
  <path class="st6" d="M101.2,39c.4,1.8,1.5,2.8,2.8,2.8s2.1-.9,2.1-2-.2-1-.9-1.8c-2.1-2.1-4.5-2.3-4.5-4.8s1.5-3.3,3.8-3.3,1.6.2,2.4.5v2.7c0,0-.4,0-.4,0-.2-1.5-1.2-2.5-2.4-2.5s-1.8.7-1.8,1.7c0,2.6,5.5,3.1,5.5,6.7s-1.6,3.4-3.7,3.4-1,0-1.3-.2c-.3,0-.6-.2-.8-.2s-.4.1-.5.4h-.4l-.3-3.3s.4,0,.4,0Z"/>
  <path class="st6" d="M122.1,32.7c-.4,0-1.8-.2-3-.4.2.3.5,1,.5,1.9,0,2.2-1.9,4.3-5.2,4.3s-.8,0-1.4-.2c-.5.5-1.8.8-1.8,1.5s1.3,1,4.2,1.1c3.4,0,4.5.2,5.4,1.1s.9,1.5.9,2.1c0,1.9-2.6,4.9-8.1,4.9s-4.6-1.4-4.6-2.8,1.8-2,3.2-3.7c-1.6-.2-2.8-1.2-2.8-2.1,0-1.4,2-1.4,3-2.2-1.8-.7-2.8-2-2.8-3.7,0-2.6,2.3-4.5,5.2-4.5s2.5.4,3.3,1.2c1.3,0,2.6-.1,3.9-.3v1.9h0ZM115.3,48.1c2.5,0,4.9-1.7,4.9-3.5s-.9-1.7-2-1.8c-.8,0-4.5-.1-5.4-.2-.8,1-1.9,1.4-1.9,2.5,0,1.4,2,3,4.4,3ZM114.5,30.5c-1.1,0-2.9.6-2.9,3.4s.9,4.1,3.2,4.1,2.8-1.4,2.8-3.5c0-2.6-1.3-4-3.1-4Z"/>
  <path class="st6" d="M129.1,29.9c3.6,0,6.4,2.7,6.4,6.2s-2.8,6.2-6.3,6.2-6.5-2.7-6.5-6.2c0-4.1,3.3-6.3,6.4-6.3ZM129.5,41.7c1.8,0,3.7-1.8,3.7-4.8s-2.1-6.3-4.6-6.3-3.8,2-3.8,4.6,2.1,6.4,4.6,6.4Z"/>
  <path class="st6" d="M149.3,42.3l-3.5-8.4-3.6,8.4h-.8l-4.4-10c-.4-.9-.8-1.4-2.2-1.5v-.5h5.8v.5c-1.8,0-1.9.6-1.2,2l3.2,7.2,2.9-6.9c-.6-1.5-1.2-2-2.2-2.2h-.7v-.6h6.1v.5c-1.5,0-1.9.5-1.3,2l2.9,7.1,2.9-7c.6-1.6.1-2.1-1.7-2.1v-.5h5v.5c-1.1.1-1.8.7-2.4,2.1l-3.8,9.4s-.8,0-.8,0Z"/>
</svg>